# xmcd
#
# Track frame offsets:
#	187
#	15525
#	38475
#	57087
#	74572
#	93762
#	117922
#	140705
#	157987
#	177217
#	194230
#	204005
#	222632
#	248457
#
# Disc length: 3420 seconds
#
# Revision: 1
# Processed by: cddbd v1.5.1PL0 Copyright (c) Steve Scherf et al.
# Submitted via: CDex 1.50Beta5
#
DISCID=c00d5a0e
DTITLE=TVサントラ - 最高の恋人
DYEAR=1995
DGENRE=Soundtrack
TTITLE0=TVサントラ/Platonic Love Story 1995,A
TTITLE1=TVサントラ/二人だけのメディテーション
TTITLE2=TVサントラ/脳天気なジェラシー
TTITLE3=TVサントラ/すき…でもすき
TTITLE4=TVサントラ/窓のある風景
TTITLE5=TVサントラ/ある決定
TTITLE6=TVサントラ/時には甘えたい
TTITLE7=TVサントラ/おいしいお茶
TTITLE8=TVサントラ/ノー・コミュニケーション
TTITLE9=TVサントラ/旅立つ時
TTITLE10=TVサントラ/とまどいの恋心
TTITLE11=TVサントラ/君の知らない思い出
TTITLE12=TVサントラ/新しい未来
TTITLE13=高橋由美子/すき…でもすき
EXTD=
EXTT0=
EXTT1=
EXTT2=
EXTT3=
EXTT4=
EXTT5=
EXTT6=
EXTT7=
EXTT8=
EXTT9=
EXTT10=
EXTT11=
EXTT12=
EXTT13=
PLAYORDER=
